<svg width="197" height="117" viewBox="0 0 197 117" fill="none" xmlns="http://www.w3.org/2000/svg">
<rect width="197" height="117" fill="black"/>
<path fill-rule="evenodd" clip-rule="evenodd" d="M131.338 11.9962C145.826 1.1541 161.002 3.28591 170.128 10.5636C174.727 14.2313 177.758 19.1711 178.504 24.4219C179.217 29.4391 177.872 34.9176 173.508 40.0916L157.158 56.728V41.464C157.158 40.856 156.934 40.344 156.486 39.928C156.07 39.48 155.558 39.256 154.95 39.256C154.342 39.256 153.83 39.48 153.414 39.928C152.998 40.344 152.79 40.856 152.79 41.464V71.08C152.79 71.688 152.998 72.2 153.414 72.616C153.83 73.032 154.342 73.24 154.95 73.24C155.558 73.24 156.07 73.032 156.486 72.616C156.934 72.2 157.158 71.688 157.158 71.08V62.104L162.63 56.584L175.014 72.376C175.137 72.5464 175.274 72.6915 175.425 72.8115C184.36 83.3232 182.074 97.0472 173.071 105.478C164.111 113.866 148.24 117.087 130.107 105.166L105.149 73.1213C105.377 73.2004 105.624 73.24 105.889 73.24C106.497 73.24 107.009 73.032 107.425 72.616C107.873 72.2 108.097 71.688 108.097 71.08V56.68C109.217 55.272 110.401 54.152 111.649 53.32C112.929 52.488 114.369 52.072 115.969 52.072C119.489 52.072 121.249 54.024 121.249 57.928V71.08C121.249 71.688 121.457 72.2 121.873 72.616C122.289 73.032 122.801 73.24 123.409 73.24C124.017 73.24 124.529 73.032 124.945 72.616C125.393 72.2 125.617 71.688 125.617 71.08V57.448C125.617 55.72 125.265 54.136 124.561 52.696C123.889 51.256 122.897 50.12 121.585 49.288C120.305 48.456 118.785 48.04 117.025 48.04C115.105 48.04 113.441 48.44 112.033 49.24C110.625 50.04 109.313 51.112 108.097 52.456V50.488C108.097 49.88 107.873 49.368 107.425 48.952C107.009 48.504 106.497 48.28 105.889 48.28C105.281 48.28 104.769 48.504 104.353 48.952C103.937 49.368 103.729 49.88 103.729 50.488V71.08C103.729 71.1592 103.733 71.2367 103.74 71.3126L103.25 70.6832C103.174 70.3599 103.015 70.0441 102.773 69.736L90.0532 53.704L101.141 42.664C101.287 42.5179 101.403 42.3469 101.489 42.1511L131.338 11.9962ZM99.7684 72.7229C99.6578 72.622 99.5554 72.5064 99.4612 72.376L87.1324 56.6543L81.6052 62.238V71.08C81.6052 71.688 81.3812 72.2 80.9332 72.616C80.5172 73.032 80.0052 73.24 79.3972 73.24C78.7892 73.24 78.2772 73.032 77.8612 72.616C77.4452 72.2 77.2372 71.688 77.2372 71.08V41.464C77.2372 40.856 77.4452 40.344 77.8612 39.928C78.2772 39.48 78.7892 39.256 79.3972 39.256C80.0052 39.256 80.5172 39.48 80.9332 39.928C81.3812 40.344 81.6052 40.856 81.6052 41.464V56.5521L129.079 8.59299L129.135 8.64928C145.012 -3.11056 162.101 -0.953658 172.622 7.4363C177.898 11.6436 181.554 17.4539 182.464 23.8592C183.317 29.8615 181.732 36.2187 177.088 42.0335C177 42.2791 176.869 42.4893 176.694 42.664L165.606 53.704L177.774 69.0393C177.862 68.8064 177.997 68.5906 178.179 68.392C178.531 68.008 178.979 67.816 179.523 67.816C179.811 67.816 180.099 67.88 180.387 68.008C181.411 68.456 182.435 68.808 183.459 69.064C184.483 69.32 185.635 69.448 186.915 69.448C190.467 69.448 192.243 68.312 192.243 66.04C192.243 65.304 191.827 64.744 190.995 64.36C190.195 63.976 188.867 63.544 187.011 63.064C185.123 62.616 183.555 62.152 182.307 61.672C181.091 61.192 180.035 60.472 179.139 59.512C178.275 58.52 177.843 57.224 177.843 55.624C177.843 53.384 178.643 51.56 180.243 50.152C181.875 48.744 184.195 48.04 187.203 48.04C189.667 48.04 191.987 48.44 194.163 49.24C194.611 49.368 194.947 49.608 195.171 49.96C195.427 50.312 195.555 50.68 195.555 51.064C195.555 51.576 195.363 52.024 194.979 52.408C194.627 52.792 194.179 52.984 193.635 52.984C193.475 52.984 193.267 52.952 193.011 52.888C191.155 52.312 189.331 52.024 187.539 52.024C185.811 52.024 184.451 52.344 183.459 52.984C182.499 53.592 182.019 54.392 182.019 55.384C182.019 56.344 182.467 57.048 183.363 57.496C184.259 57.944 185.651 58.376 187.539 58.792C189.427 59.272 190.963 59.752 192.147 60.232C193.331 60.68 194.339 61.4 195.171 62.392C196.035 63.384 196.467 64.712 196.467 66.376C196.467 68.424 195.651 70.12 194.019 71.464C192.419 72.808 190.147 73.48 187.203 73.48C184.57 73.48 182.133 72.9928 179.89 72.0183C188.698 84.111 185.64 99.1887 175.804 108.397C165.232 118.297 147.089 121.348 127.452 108.205L127.422 108.229L99.7684 72.7229ZM13.368 73.48C10.232 73.48 7.49599 72.264 5.15999 69.832V71.08C5.15999 71.688 4.93599 72.2 4.48799 72.616C4.07199 73.032 3.55999 73.24 2.95199 73.24C2.34399 73.24 1.83199 73.032 1.41599 72.616C0.999992 72.2 0.791992 71.688 0.791992 71.08V39.928C0.791992 39.32 0.999992 38.808 1.41599 38.392C1.83199 37.944 2.34399 37.72 2.95199 37.72C3.59199 37.72 4.11999 37.928 4.53599 38.344C4.95199 38.76 5.15999 39.288 5.15999 39.928V51.688C7.49599 49.256 10.232 48.04 13.368 48.04C15.352 48.04 17.224 48.552 18.984 49.576C20.776 50.568 22.216 52.04 23.304 53.992C24.424 55.912 24.984 58.168 24.984 60.76C24.984 63.352 24.424 65.624 23.304 67.576C22.216 69.496 20.776 70.968 18.984 71.992C17.224 72.984 15.352 73.48 13.368 73.48ZM12.744 69.4C15.112 69.4 17.016 68.648 18.456 67.144C19.896 65.64 20.616 63.512 20.616 60.76C20.616 58.008 19.896 55.88 18.456 54.376C17.016 52.872 15.112 52.12 12.744 52.12C11.272 52.12 9.87999 52.456 8.56799 53.128C7.28799 53.768 6.15199 54.632 5.15999 55.72V65.8C6.15199 66.888 7.28799 67.768 8.56799 68.44C9.87999 69.08 11.272 69.4 12.744 69.4ZM28.4332 73.24C27.8252 73.24 27.3132 73.032 26.8972 72.616C26.4812 72.2 26.2732 71.688 26.2732 71.08V39.928C26.2732 39.32 26.4812 38.808 26.8972 38.392C27.3132 37.944 27.8252 37.72 28.4332 37.72C29.0732 37.72 29.6012 37.928 30.0172 38.344C30.4332 38.76 30.6412 39.288 30.6412 39.928V71.08C30.6412 71.688 30.4172 72.2 29.9692 72.616C29.5532 73.032 29.0412 73.24 28.4332 73.24ZM39.6664 73.48C38.2584 73.48 36.9464 73.192 35.7304 72.616C34.5464 72.04 33.6024 71.208 32.8984 70.12C32.1944 69 31.8424 67.72 31.8424 66.28C31.8424 63.912 32.7704 62.024 34.6264 60.616C36.5144 59.208 39.2664 58.504 42.8824 58.504H48.6904V58.12C48.6904 56.008 48.1624 54.488 47.1064 53.56C46.0824 52.632 44.4664 52.168 42.2584 52.168C41.0424 52.168 39.9544 52.264 38.9944 52.456C38.0664 52.648 37.0264 52.936 35.8744 53.32C35.6184 53.384 35.4104 53.416 35.2504 53.416C34.7704 53.416 34.3544 53.24 34.0024 52.888C33.6504 52.536 33.4744 52.104 33.4744 51.592C33.4744 50.728 33.8904 50.12 34.7224 49.768C37.4424 48.616 40.2104 48.04 43.0264 48.04C45.2344 48.04 47.0904 48.488 48.5944 49.384C50.1304 50.28 51.2504 51.448 51.9544 52.888C52.6904 54.296 53.0584 55.832 53.0584 57.496V71.08C53.0584 71.688 52.8344 72.2 52.3864 72.616C51.9704 73.032 51.4584 73.24 50.8504 73.24C50.2424 73.24 49.7304 73.032 49.3144 72.616C48.8984 72.2 48.6904 71.688 48.6904 71.08V69.832C46.3224 72.264 43.3144 73.48 39.6664 73.48ZM41.2984 69.64C42.7064 69.64 44.0664 69.304 45.3784 68.632C46.6904 67.928 47.7944 67.064 48.6904 66.04V62.008H43.4584C38.6264 62.008 36.2104 63.272 36.2104 65.8C36.2104 66.952 36.5944 67.88 37.3624 68.584C38.1624 69.288 39.4744 69.64 41.2984 69.64ZM66.9075 73.48C64.6035 73.48 62.4755 72.968 60.5235 71.944C58.5715 70.92 57.0035 69.448 55.8195 67.528C54.6675 65.608 54.0915 63.352 54.0915 60.76C54.0915 58.168 54.6675 55.912 55.8195 53.992C57.0035 52.072 58.5715 50.6 60.5235 49.576C62.4755 48.552 64.6035 48.04 66.9075 48.04C68.6035 48.04 70.0595 48.264 71.2755 48.712C72.5235 49.128 73.6755 49.672 74.7315 50.344C75.3715 50.76 75.6915 51.32 75.6915 52.024C75.6915 52.504 75.4995 52.952 75.1155 53.368C74.7635 53.752 74.3475 53.944 73.8675 53.944C73.5155 53.944 73.1635 53.848 72.8115 53.656C71.7555 53.112 70.8435 52.728 70.0755 52.504C69.3395 52.248 68.4115 52.12 67.2915 52.12C64.5395 52.12 62.3795 52.92 60.8115 54.52C59.2435 56.088 58.4595 58.168 58.4595 60.76C58.4595 63.352 59.2435 65.448 60.8115 67.048C62.3795 68.616 64.5395 69.4 67.2915 69.4C68.4115 69.4 69.3395 69.288 70.0755 69.064C70.8435 68.808 71.7555 68.408 72.8115 67.864C73.1635 67.672 73.5155 67.576 73.8675 67.576C74.3475 67.576 74.7635 67.784 75.1155 68.2C75.4995 68.584 75.6915 69.016 75.6915 69.496C75.6915 70.2 75.3715 70.76 74.7315 71.176C73.6755 71.848 72.5235 72.408 71.2755 72.856C70.0595 73.272 68.6035 73.48 66.9075 73.48ZM138.979 73.48C136.515 73.48 134.355 72.952 132.499 71.896C130.643 70.84 129.203 69.352 128.179 67.432C127.187 65.48 126.691 63.256 126.691 60.76C126.691 58.264 127.187 56.056 128.179 54.136C129.203 52.184 130.643 50.68 132.499 49.624C134.355 48.568 136.515 48.04 138.979 48.04C141.411 48.04 143.555 48.568 145.411 49.624C147.267 50.68 148.707 52.184 149.731 54.136C150.755 56.056 151.267 58.264 151.267 60.76C151.267 63.256 150.755 65.48 149.731 67.432C148.707 69.352 147.267 70.84 145.411 71.896C143.555 72.952 141.411 73.48 138.979 73.48ZM138.979 69.496C140.291 69.496 141.539 69.192 142.723 68.584C143.939 67.976 144.931 67.016 145.699 65.704C146.499 64.392 146.899 62.728 146.899 60.712C146.899 58.728 146.499 57.08 145.699 55.768C144.931 54.456 143.939 53.512 142.723 52.936C141.539 52.328 140.291 52.024 138.979 52.024C137.635 52.024 136.355 52.328 135.139 52.936C133.955 53.512 132.979 54.456 132.211 55.768C131.443 57.08 131.059 58.728 131.059 60.712C131.059 62.728 131.443 64.392 132.211 65.704C132.979 67.016 133.955 67.976 135.139 68.584C136.355 69.192 137.635 69.496 138.979 69.496Z" fill="white"/>
</svg>
