<svg width="240" height="184" viewBox="0 0 240 184" fill="none" xmlns="http://www.w3.org/2000/svg">
<path fill-rule="evenodd" clip-rule="evenodd" d="M204.154 85.4315C203.444 86.1343 202.727 86.8313 202.004 87.5225L200.891 88.587L201.029 88.7322L200.129 89.6834L197.615 92.7049V69.117H192.918V108.117H197.615V98.4686L199.86 96.1268L203.893 100.838C210.912 109.039 217.061 117.816 220.979 127.526C227.349 143.312 228.518 153.994 227.028 161.099C225.594 167.935 221.626 171.814 216.441 174.041C205.704 178.651 194.699 176.314 183.926 170.013C173.109 163.688 162.98 153.605 154.507 143.666L111.256 92.9343L111.78 93.3773L126.902 75.4978V108.117H131.803V79.6288L150.414 108.117H155.314V71.1483H150.465V99.7635L131.803 71.1483H130.581L156.139 40.9306C165.087 30.3518 176.148 19.5138 187.781 13.0069C199.37 6.52437 210.952 4.61458 221.69 10.6756C226.071 13.149 229.457 16.9896 230.879 23.0899C232.336 29.3432 231.796 38.2738 227.518 50.8963C223.761 61.9793 216.954 71.7783 208.78 80.6444H208.686L204.154 85.4315ZM107.099 89.4187L106.435 88.8568L150.795 36.4101C159.954 25.5808 171.656 14.0059 184.364 6.8977C197.115 -0.234873 211.451 -3.14238 225.131 4.57971C231.077 7.93653 235.794 13.339 237.696 21.5008C239.563 29.5095 238.65 39.8599 234.147 53.1435C228.87 68.7116 218.315 81.6144 206.841 92.5825L206.401 93.0034L209.211 96.2862C216.49 104.791 223.16 114.224 227.471 124.907C234.06 141.237 235.783 153.458 233.879 162.536C231.919 171.883 226.206 177.465 219.203 180.473C205.686 186.277 192.263 182.998 180.392 176.056C168.565 169.14 157.831 158.355 149.18 148.207L105.72 97.2305L104.533 98.4686V108.117H99.8359V69.117H104.533V91.6066L107.099 89.4187ZM0 108.117V71.1483H12.0859C16.0977 71.1483 19.1107 71.9777 21.125 73.6366C23.1562 75.2954 24.1719 77.7498 24.1719 80.9998C24.1719 82.7264 23.681 84.2583 22.6992 85.5956C21.7174 86.9159 20.3802 87.9399 18.6875 88.6678C20.6849 89.2264 22.2591 90.2928 23.4102 91.867C24.5781 93.4243 25.1621 95.2863 25.1621 97.453C25.1621 100.771 24.0872 103.377 21.9375 105.273C19.7878 107.169 16.7493 108.117 12.8223 108.117H0ZM4.875 90.826V104.131H12.9238C15.1921 104.131 16.9779 103.547 18.2812 102.379C19.6016 101.194 20.2617 99.5689 20.2617 97.5038C20.2617 93.0519 17.8411 90.826 13 90.826H4.875ZM4.875 86.9159H12.2383C14.3711 86.9159 16.0723 86.3827 17.3418 85.3163C18.6283 84.2498 19.2715 82.8026 19.2715 80.9745C19.2715 78.9432 18.679 77.4706 17.4941 76.5565C16.3092 75.6255 14.5065 75.16 12.0859 75.16H4.875V86.9159ZM36.7656 108.117H32.0684V69.117H36.7656V108.117ZM61.2676 108.117C60.9967 107.575 60.7767 106.611 60.6074 105.223C58.4238 107.491 55.8171 108.625 52.7871 108.625C50.0788 108.625 47.8529 107.863 46.1094 106.34C44.3828 104.799 43.5195 102.853 43.5195 100.5C43.5195 97.6392 44.6029 95.4217 46.7695 93.8475C48.9531 92.2564 52.0169 91.4608 55.9609 91.4608H60.5312V89.3026C60.5312 87.6607 60.0404 86.3573 59.0586 85.3924C58.0768 84.4107 56.6296 83.9198 54.7168 83.9198C53.041 83.9198 51.6361 84.3429 50.502 85.1893C49.3678 86.0357 48.8008 87.0597 48.8008 88.2616H44.0781C44.0781 86.8905 44.5605 85.5702 45.5254 84.3006C46.5072 83.0142 47.8275 81.9985 49.4863 81.2538C51.1621 80.509 52.9987 80.1366 54.9961 80.1366C58.1615 80.1366 60.6413 80.9321 62.4355 82.5233C64.2298 84.0975 65.1608 86.2726 65.2285 89.0487V101.693C65.2285 104.215 65.5501 106.221 66.1934 107.711V108.117H61.2676ZM53.4727 104.537C54.9453 104.537 56.3418 104.156 57.6621 103.394C58.9824 102.633 59.9388 101.642 60.5312 100.424V94.787H56.8496C51.0944 94.787 48.2168 96.4712 48.2168 99.8397C48.2168 101.312 48.7077 102.463 49.6895 103.293C50.6712 104.122 51.9323 104.537 53.4727 104.537ZM83.6113 104.791C85.2871 104.791 86.7513 104.283 88.0039 103.267C89.2565 102.252 89.9505 100.982 90.0859 99.4588H94.5293C94.4447 101.033 93.903 102.531 92.9043 103.953C91.9056 105.375 90.5684 106.509 88.8926 107.355C87.2337 108.202 85.4733 108.625 83.6113 108.625C79.8704 108.625 76.8913 107.381 74.6738 104.892C72.4733 102.387 71.373 98.9679 71.373 94.6346V93.8475C71.373 91.173 71.8639 88.7948 72.8457 86.7127C73.8275 84.6307 75.2324 83.0142 77.0605 81.8631C78.9056 80.7121 81.0807 80.1366 83.5859 80.1366C86.6667 80.1366 89.2227 81.0591 91.2539 82.9041C93.3021 84.7492 94.3939 87.1444 94.5293 90.0897H90.0859C89.9505 88.3123 89.2734 86.8566 88.0547 85.7225C86.8529 84.5715 85.3633 83.9959 83.5859 83.9959C81.1992 83.9959 79.3457 84.8592 78.0254 86.5858C76.722 88.2954 76.0703 90.7752 76.0703 94.0252V94.9139C76.0703 98.0793 76.722 100.517 78.0254 102.226C79.3288 103.936 81.1908 104.791 83.6113 104.791ZM161.992 94.1268C161.992 91.4354 162.517 89.0148 163.566 86.8651C164.633 84.7153 166.105 83.0565 167.984 81.8885C169.88 80.7206 172.038 80.1366 174.459 80.1366C178.2 80.1366 181.221 81.4315 183.523 84.0213C185.842 86.6112 187.002 90.0558 187.002 94.3553V94.6854C187.002 97.3599 186.486 99.7635 185.453 101.896C184.438 104.012 182.973 105.663 181.061 106.848C179.165 108.032 176.981 108.625 174.51 108.625C170.786 108.625 167.764 107.33 165.445 104.74C163.143 102.15 161.992 98.7225 161.992 94.4569V94.1268ZM166.715 94.6854C166.715 97.7323 167.417 100.178 168.822 102.023C170.244 103.868 172.14 104.791 174.51 104.791C176.896 104.791 178.792 103.86 180.197 101.998C181.602 100.119 182.305 97.4953 182.305 94.1268C182.305 91.1138 181.585 88.6763 180.146 86.8143C178.725 84.9354 176.829 83.9959 174.459 83.9959C172.14 83.9959 170.27 84.9185 168.848 86.7635C167.426 88.6086 166.715 91.2492 166.715 94.6854ZM235.244 100.83C235.244 99.5604 234.762 98.5786 233.797 97.8846C232.849 97.1737 231.182 96.5643 228.795 96.0565C226.425 95.5487 224.538 94.9393 223.133 94.2284C221.745 93.5174 220.712 92.6711 220.035 91.6893C219.375 90.7075 219.045 89.5396 219.045 88.1854C219.045 85.9341 219.993 84.0298 221.889 82.4725C223.801 80.9152 226.239 80.1366 229.201 80.1366C232.316 80.1366 234.838 80.9406 236.768 82.5487C238.714 84.1567 239.688 86.2134 239.688 88.7186H234.965C234.965 87.4321 234.415 86.3234 233.314 85.3924C232.231 84.4614 230.86 83.9959 229.201 83.9959C227.492 83.9959 226.154 84.3683 225.189 85.1131C224.225 85.8579 223.742 86.8312 223.742 88.0331C223.742 89.1672 224.191 90.022 225.088 90.5975C225.985 91.173 227.602 91.7232 229.938 92.2479C232.29 92.7726 234.195 93.3989 235.65 94.1268C237.106 94.8547 238.181 95.7349 238.875 96.7674C239.586 97.7831 239.941 99.0272 239.941 100.5C239.941 102.954 238.96 104.926 236.996 106.416C235.033 107.889 232.485 108.625 229.354 108.625C227.153 108.625 225.206 108.236 223.514 107.457C221.821 106.678 220.492 105.595 219.527 104.207C218.579 102.802 218.105 101.287 218.105 99.662H222.803C222.887 101.236 223.514 102.489 224.682 103.42C225.867 104.334 227.424 104.791 229.354 104.791C231.131 104.791 232.553 104.435 233.619 103.724C234.702 102.997 235.244 102.032 235.244 100.83Z" fill="black"/>
</svg>
