<svg width="241" height="185" viewBox="0 0 241 185" fill="none" xmlns="http://www.w3.org/2000/svg">
<path fill-rule="evenodd" clip-rule="evenodd" d="M205.046 86.3145C204.337 87.0173 203.62 87.7142 202.897 88.4054L201.783 89.47L201.922 89.6151L201.021 90.5664L198.508 93.5879V70H193.811V109H198.508V99.3515L200.753 97.0097L204.785 101.721C211.804 109.922 217.954 118.699 221.872 128.409C228.241 144.195 229.411 154.877 227.921 161.982C226.487 168.818 222.518 172.697 217.333 174.924C206.597 179.534 195.592 177.196 184.818 170.896C174.001 164.571 163.872 154.488 155.399 144.549L112.149 93.8173L112.672 94.2602L127.795 76.3807V109H132.695V80.5117L151.307 109H156.207V72.0312H151.357V100.646L132.695 72.0312H131.474L157.032 41.8135C165.98 31.2347 177.041 20.3967 188.674 13.8898C200.263 7.4073 211.845 5.49752 222.582 11.5585C226.964 14.0319 230.349 17.8725 231.771 23.9728C233.229 30.2262 232.689 39.1568 228.41 51.7792C224.653 62.8622 217.847 72.6613 209.672 81.5273H209.578L205.046 86.3145ZM107.992 90.3017L107.328 89.7397L151.687 37.293C160.847 26.4637 172.549 14.8888 185.256 7.78063C198.007 0.648062 212.343 -2.25945 226.023 5.46264C231.97 8.81946 236.686 14.2219 238.589 22.3837C240.455 30.3925 239.542 40.7429 235.04 54.0264C229.762 69.5946 219.208 82.4973 207.734 93.4654L207.293 93.8864L210.103 97.1691C217.383 105.674 224.053 115.107 228.363 125.789C234.952 142.12 236.676 154.341 234.772 163.419C232.811 172.766 227.099 178.348 220.095 181.356C206.578 187.16 193.156 183.881 181.285 176.939C169.457 170.022 158.723 159.238 150.072 149.09L106.613 98.1135L105.426 99.3515V109H100.729V70H105.426V92.4895L107.992 90.3017ZM0.892578 109V72.0312H12.9785C16.9902 72.0312 20.0033 72.8606 22.0176 74.5195C24.0488 76.1784 25.0645 78.6328 25.0645 81.8828C25.0645 83.6093 24.5736 85.1412 23.5918 86.4785C22.61 87.7988 21.2728 88.8229 19.5801 89.5507C21.5775 90.1093 23.1517 91.1757 24.3027 92.75C25.4707 94.3073 26.0547 96.1692 26.0547 98.3359C26.0547 101.654 24.9798 104.26 22.8301 106.156C20.6803 108.052 17.6419 109 13.7148 109H0.892578ZM5.76758 91.709V105.014H13.8164C16.0846 105.014 17.8704 104.43 19.1738 103.262C20.4941 102.077 21.1543 100.452 21.1543 98.3867C21.1543 93.9349 18.7337 91.709 13.8926 91.709H5.76758ZM5.76758 87.7988H13.1309C15.2637 87.7988 16.9648 87.2656 18.2344 86.1992C19.5208 85.1328 20.1641 83.6855 20.1641 81.8574C20.1641 79.8261 19.5716 78.3535 18.3867 77.4394C17.2018 76.5084 15.3991 76.0429 12.9785 76.0429H5.76758V87.7988ZM37.6582 109H32.9609V70H37.6582V109ZM62.1602 109C61.8893 108.458 61.6693 107.493 61.5 106.105C59.3164 108.374 56.7096 109.508 53.6797 109.508C50.9714 109.508 48.7454 108.746 47.002 107.223C45.2754 105.682 44.4121 103.736 44.4121 101.383C44.4121 98.5221 45.4954 96.3047 47.6621 94.7304C49.8457 93.1393 52.9095 92.3437 56.8535 92.3437H61.4238V90.1855C61.4238 88.5436 60.9329 87.2402 59.9512 86.2754C58.9694 85.2936 57.5221 84.8027 55.6094 84.8027C53.9336 84.8027 52.5286 85.2259 51.3945 86.0722C50.2604 86.9186 49.6934 87.9427 49.6934 89.1445H44.9707C44.9707 87.7734 45.4531 86.4531 46.418 85.1836C47.3997 83.8971 48.7201 82.8815 50.3789 82.1367C52.0547 81.3919 53.8913 81.0195 55.8887 81.0195C59.054 81.0195 61.5339 81.8151 63.3281 83.4062C65.1224 84.9804 66.0534 87.1556 66.1211 89.9316V102.576C66.1211 105.098 66.4427 107.104 67.0859 108.594V109H62.1602ZM54.3652 105.42C55.8379 105.42 57.2344 105.039 58.5547 104.277C59.875 103.516 60.8314 102.525 61.4238 101.307V95.6699H57.7422C51.987 95.6699 49.1094 97.3541 49.1094 100.723C49.1094 102.195 49.6003 103.346 50.582 104.176C51.5638 105.005 52.8249 105.42 54.3652 105.42ZM84.5039 105.674C86.1797 105.674 87.6439 105.166 88.8965 104.15C90.1491 103.135 90.8431 101.865 90.9785 100.342H95.4219C95.3372 101.916 94.7956 103.414 93.7969 104.836C92.7982 106.258 91.4609 107.392 89.7852 108.238C88.1263 109.085 86.3659 109.508 84.5039 109.508C80.763 109.508 77.7839 108.264 75.5664 105.775C73.3659 103.27 72.2656 99.8509 72.2656 95.5175V94.7304C72.2656 92.056 72.7565 89.6777 73.7383 87.5957C74.7201 85.5136 76.125 83.8971 77.9531 82.7461C79.7982 81.595 81.9733 81.0195 84.4785 81.0195C87.5592 81.0195 90.1152 81.942 92.1465 83.7871C94.1947 85.6321 95.2865 88.0273 95.4219 90.9726H90.9785C90.8431 89.1953 90.166 87.7396 88.9473 86.6054C87.7454 85.4544 86.2559 84.8789 84.4785 84.8789C82.0918 84.8789 80.2383 85.7422 78.918 87.4687C77.6146 89.1784 76.9629 91.6582 76.9629 94.9082V95.7968C76.9629 98.9622 77.6146 101.4 78.918 103.109C80.2214 104.819 82.0833 105.674 84.5039 105.674ZM162.885 95.0097C162.885 92.3183 163.41 89.8978 164.459 87.748C165.525 85.5983 166.998 83.9394 168.877 82.7715C170.773 81.6035 172.931 81.0195 175.352 81.0195C179.092 81.0195 182.114 82.3144 184.416 84.9043C186.735 87.4941 187.895 90.9388 187.895 95.2382V95.5683C187.895 98.2428 187.378 100.646 186.346 102.779C185.33 104.895 183.866 106.546 181.953 107.73C180.057 108.915 177.874 109.508 175.402 109.508C171.678 109.508 168.657 108.213 166.338 105.623C164.036 103.033 162.885 99.6054 162.885 95.3398V95.0097ZM167.607 95.5683C167.607 98.6152 168.31 101.061 169.715 102.906C171.137 104.751 173.033 105.674 175.402 105.674C177.789 105.674 179.685 104.743 181.09 102.881C182.495 101.002 183.197 98.3782 183.197 95.0097C183.197 91.9967 182.478 89.5592 181.039 87.6972C179.617 85.8183 177.721 84.8789 175.352 84.8789C173.033 84.8789 171.162 85.8014 169.74 87.6465C168.318 89.4915 167.607 92.1321 167.607 95.5683ZM236.137 101.713C236.137 100.443 235.654 99.4616 234.689 98.7675C233.742 98.0566 232.074 97.4472 229.688 96.9394C227.318 96.4316 225.43 95.8222 224.025 95.1113C222.637 94.4004 221.605 93.554 220.928 92.5722C220.268 91.5905 219.938 90.4225 219.938 89.0683C219.938 86.817 220.885 84.9127 222.781 83.3554C224.694 81.7981 227.132 81.0195 230.094 81.0195C233.208 81.0195 235.73 81.8235 237.66 83.4316C239.607 85.0397 240.58 87.0963 240.58 89.6015H235.857C235.857 88.3151 235.307 87.2064 234.207 86.2754C233.124 85.3444 231.753 84.8789 230.094 84.8789C228.384 84.8789 227.047 85.2513 226.082 85.9961C225.117 86.7409 224.635 87.7142 224.635 88.916C224.635 90.0501 225.083 90.9049 225.98 91.4804C226.878 92.056 228.494 92.6061 230.83 93.1308C233.183 93.6556 235.087 94.2819 236.543 95.0097C237.999 95.7376 239.074 96.6178 239.768 97.6504C240.479 98.666 240.834 99.9101 240.834 101.383C240.834 103.837 239.852 105.809 237.889 107.299C235.925 108.771 233.378 109.508 230.246 109.508C228.046 109.508 226.099 109.118 224.406 108.34C222.714 107.561 221.385 106.478 220.42 105.09C219.472 103.685 218.998 102.17 218.998 100.545H223.695C223.78 102.119 224.406 103.372 225.574 104.303C226.759 105.217 228.316 105.674 230.246 105.674C232.023 105.674 233.445 105.318 234.512 104.607C235.595 103.88 236.137 102.915 236.137 101.713Z" fill="white"/>
</svg>
